<?xml version="1.0" encoding="UTF-8" standalone="no"?>
<svg
   version="1.1"
   width="5978.8804"
   height="1617.2969"
   viewBox="0 0 5978.8804 1617.2969"
   xml:space="preserve"
   id="svg39"
   xmlns="http://www.w3.org/2000/svg"
   xmlns:svg="http://www.w3.org/2000/svg">
<desc
   id="desc1">Created with Fabric.js 5.2.4</desc>
<defs
   id="defs1" />































<path
   id="path30"
   style="font-size:666.667px;font-family:Roboto;-inkscape-font-specification:Roboto;white-space:pre;inline-size:4646.97;fill:#ffffff"
   d="m 4237.5449,986.19263 q -70.6667,0 -112.6667,-37.33335 -42,-37.33335 -42,-102.66672 h 60 q 0,40.66669 26,64.00003 26,22.66668 68.6667,22.66668 41.3334,0 66,-24.00001 24.6667,-24.00001 24.6667,-62.6667 0,-29.33335 -16,-50.66669 -15.3333,-22.00001 -44.6667,-30.00002 l -74,-20.66667 q -46,-13.33334 -72.6667,-47.33336 -26,-34.66668 -26,-81.33337 0,-38.66669 17.3333,-68.00004 17.3334,-29.33334 48.6667,-45.33335 31.3334,-16.66668 72,-16.66668 41.3334,0 72.6667,16.66668 32.0001,16.00001 50.0001,45.33335 18,28.66669 18,66.6667 h -60.0001 q 0,-33.33335 -22.6666,-54.00002 -22.6667,-21.33335 -58.0001,-21.33335 -35.3333,0 -57.3333,21.33335 -22,20.66667 -22,54.00002 0,26.66668 14,46.00003 14.6666,18.66667 40.6667,26.00001 l 76,21.33334 q 48.6667,13.33334 75.3334,50.66669 27.3333,36.66669 27.3333,87.33338 0,64.00003 -40.6667,102.00005 -40.6667,38.00002 -108.6667,38.00002 z m 402.6672,0 q -66.6667,0 -106.6668,-37.33335 -40,-37.33335 -40,-102.66672 V 746.19251 q 0,-65.33337 40,-102.66672 40.0001,-37.33335 106.6668,-37.33335 63.3333,0 102,34.00002 39.3334,34.00001 41.3334,92.66671 h -60.0001 q -2,-35.33335 -24,-54.00003 -22,-19.33334 -59.3333,-19.33334 -39.3334,0 -63.3334,22.66668 -23.3333,22.00001 -23.3333,63.33336 v 100.66672 q 0,41.33335 23.3333,64.00003 24,22.66668 63.3334,22.66668 37.3333,0 59.3333,-19.33334 22,-19.33335 24,-54.00003 h 60.0001 q -2,58.6667 -41.3334,92.66671 -38.6667,34.00002 -102,34.00002 z m 394.6671,-1.33334 q -66,0 -105.3334,-38.66668 -38.6667,-38.66669 -38.6667,-108.00005 v -84.00005 q 0,-70.00003 38.6667,-108.00005 38.6667,-38.66668 105.3334,-38.66668 66.6667,0 105.3334,38.66668 38.6667,38.00002 38.6667,108.00005 v 84.00005 q 0,69.33336 -39.3334,108.00005 -38.6667,38.66668 -104.6667,38.66668 z m 0,-53.33335 q 39.3334,0 61.3334,-22.00002 22.6667,-22.00001 22.6667,-64.66669 v -97.33339 q 0,-42.66668 -22.6667,-64.66669 -22,-22.00001 -61.3334,-22.00001 -38.6667,0 -61.3333,22.00001 -22.6667,22.00001 -22.6667,64.66669 v 97.33339 q 0,42.66668 22.6667,64.66669 22.6666,22.00002 61.3333,22.00002 z M 5296.213,1099.526 V 612.85911 h 60 v 70.00004 h 0.6667 q 4.6666,-36.00002 31.3333,-56.00003 26.6667,-20.66668 68,-20.66668 55.3334,0 88.0001,36.66669 32.6667,36.00001 32.6667,99.33338 V 849.5259 q 0,63.33336 -32.6667,100.00004 -32.6667,36.66669 -88.0001,36.66669 -41.3333,0 -68,-20.66668 -26.6667,-20.66667 -31.3333,-56.00003 h -2 l 1.3333,83.33338 v 106.6667 z m 140,-165.3334 q 38.0001,0 59.3334,-20.00001 21.3333,-20.00001 21.3333,-64.66669 V 742.85918 q 0,-45.33336 -21.3333,-64.6667 -21.3333,-20.00001 -59.3334,-20.00001 -36.6666,0 -58.6667,23.33334 -21.3333,23.33335 -21.3333,64.6667 v 100.00005 q 0,41.33335 21.3333,64.6667 22.0001,23.33334 58.6667,23.33334 z m 398.6672,52.00003 q -64.6667,0 -104.6667,-38.66669 -39.3334,-39.33335 -39.3334,-108.00005 v -86.66671 q 0,-68.6667 39.3334,-107.33339 40,-39.33335 104.6667,-39.33335 43.3333,0 75.3334,17.33334 32.6666,17.33335 50.6667,48.66669 18,31.33335 18,74.00004 v 65.33337 h -229.3335 v 34.66668 q 0,40.66669 23.3334,64.6667 23.3333,23.33334 62,23.33334 33.3333,0 54.6667,-12.66667 22,-13.33334 26.6667,-35.33335 h 60 q -6,46.00002 -44.6667,73.33337 -38.6667,26.66668 -96.6667,26.66668 z m -85.3334,-221.33344 h 170.6668 v -18.66668 q 0,-43.33335 -22.6667,-66.6667 -22,-24.00001 -62.6667,-24.00001 -40.6667,0 -63.3334,24.00001 -22,23.33335 -22,66.6667 z M 1840.2089,986.19263 q -66.6667,0 -105.3334,-37.33335 -38.6667,-37.33335 -38.6667,-102.66672 V 626.19245 q 0,-65.33336 38.6667,-102.66671 38.6667,-37.33336 105.3334,-37.33336 65.3334,0 104,38.00002 38.6667,37.33335 38.6667,102.00005 h -60 q 0,-41.33335 -22,-63.33336 -21.3334,-22.66668 -60.6667,-22.66668 -39.3334,0 -62,22.66668 -22.0001,22.00001 -22.0001,63.33336 v 220.00011 q 0,41.33335 22.0001,64.00003 22.6666,22.00001 62,22.00001 39.3333,0 60.6667,-22.00001 22,-22.66668 22,-64.00003 h 60 q 0,64.6667 -38.6667,102.66672 -38.6666,37.33335 -104,37.33335 z m 256.0004,-6.66667 V 492.85905 h 60 v 190.0001 h 0.6667 q 4.6666,-36.66669 30,-56.6667 25.3333,-20.00001 67.3334,-20.00001 55.3333,0 88,34.00002 32.6667,34.00001 32.6667,92.66671 v 246.66679 h -60 V 742.85918 q 0,-41.33336 -21.3334,-63.33337 -20.6667,-22.66668 -56.6667,-22.66668 -37.3333,0 -59.3333,23.33335 -21.3334,23.33334 -21.3334,66.00003 v 233.33345 z m 413.3338,0 V 612.85911 h 60 v 70.00004 h 1.3333 q 4.6667,-35.33335 30.0001,-56.00003 25.3333,-20.66668 68,-20.66668 57.3333,0 88,34.66669 31.3334,34.00001 31.3334,97.33338 v 31.33334 h -60.0001 v -31.33334 q 0,-80.00004 -78,-80.00004 -39.3333,0 -60,22.66667 -20.6667,22.66668 -20.6667,65.33337 v 233.33345 z m 525.3338,5.33333 q -66,0 -105.3334,-38.66668 -38.6667,-38.66669 -38.6667,-108.00005 v -84.00005 q 0,-70.00003 38.6667,-108.00005 38.6667,-38.66668 105.3334,-38.66668 66.6667,0 105.3334,38.66668 38.6667,38.00002 38.6667,108.00005 v 84.00005 q 0,69.33336 -39.3334,108.00005 -38.6667,38.66668 -104.6667,38.66668 z m 0,-53.33335 q 39.3333,0 61.3334,-22.00002 22.6666,-22.00001 22.6666,-64.66669 v -97.33339 q 0,-42.66668 -22.6666,-64.66669 -22.0001,-22.00001 -61.3334,-22.00001 -38.6667,0 -61.3334,22.00001 -22.6666,22.00001 -22.6666,64.66669 v 97.33339 q 0,42.66668 22.6666,64.66669 22.6667,22.00002 61.3334,22.00002 z m 261.3338,48.00002 V 612.85911 h 60 v 70.00004 h 0.6666 q 4.6667,-36.66669 30.0001,-56.6667 25.3333,-20.00001 67.3333,-20.00001 55.3334,0 88.0001,34.00002 32.6667,34.00001 32.6667,92.66671 v 246.66679 h -60.0001 V 743.52584 q 0,-42.00002 -21.3333,-64.00003 -20.6667,-22.66668 -56.6667,-22.66668 -37.3334,0 -59.3334,23.33335 -21.3333,23.33334 -21.3333,66.00003 v 233.33345 z m 538.6672,5.33333 q -66.0001,0 -105.3334,-38.66668 -38.6667,-38.66669 -38.6667,-108.00005 v -84.00005 q 0,-70.00003 38.6667,-108.00005 38.6667,-38.66668 105.3334,-38.66668 66.6667,0 105.3334,38.66668 38.6666,38.00002 38.6666,108.00005 v 84.00005 q 0,69.33336 -39.3333,108.00005 -38.6667,38.66668 -104.6667,38.66668 z m 0,-53.33335 q 39.3333,0 61.3333,-22.00002 22.6667,-22.00001 22.6667,-64.66669 v -97.33339 q 0,-42.66668 -22.6667,-64.66669 -22,-22.00001 -61.3333,-22.00001 -38.6667,0 -61.3334,22.00001 -22.6667,22.00001 -22.6667,64.66669 v 97.33339 q 0,42.66668 22.6667,64.66669 22.6667,22.00002 61.3334,22.00002 z" /><path
   id="path16"
   style="fill:#112f43;fill-opacity:1"
   d="m 1125.1816,215.85938 a 656.87085,656.87085 0 0 1 1.5137,0.82617 l -69.6973,121.11133 a 517.17712,517.17712 0 0 0 -1.5527,-0.83594 l -56.09566,97.39453 151.99606,-18.63086 148.5117,-18.16406 -60.3086,-140.62305 -58.8965,-137.42773 z m 202.3242,607.86914 a 517.17712,517.17712 0 0 0 0.7598,-17.87891 L 1468,805.6543 a 656.87085,656.87085 0 0 1 -0.6016,18.07422 h 146.2363 v -61.73828 h -453.2656 v 61.73828 z M 294.99804,761.99024 a 517.17712,517.17712 0 0 0 -0.92187,30.86914 517.17712,517.17712 0 0 0 0.92187,30.86914 h 158.26758 v -61.73828 z m -139.88867,61.73828 a 656.87085,656.87085 0 0 1 -0.72656,-30.86914 656.87085,656.87085 0 0 1 0.72656,-30.86914 H -1.5766806e-7 v 61.73828 z m 687.01367,625.27538 a 656.87085,656.87085 0 0 1 -30.86914,0.7266 656.87085,656.87085 0 0 1 -30.87109,-0.7266 v 168.293 h 61.74023 z m -61.74023,-139.8886 a 517.17712,517.17712 0 0 0 30.87109,0.9218 517.17712,517.17712 0 0 0 30.86914,-0.9218 v -145.086 H 780.38281 Z M 780.38281,4.4107701e-7 V 136.71484 a 656.87085,656.87085 0 0 1 30.87109,-0.72656 656.87085,656.87085 0 0 1 30.86914,0.72656 V 4.4107641e-7 Z M 842.12304,276.60352 a 517.17712,517.17712 0 0 0 -30.86914,-0.92188 517.17712,517.17712 0 0 0 -30.87109,0.92188 v 176.66211 h 61.74023 z M 1468,805.6543 1328.2656,805.84961 A 517.17712,517.17712 0 0 1 811.2539,1310.0371 517.17712,517.17712 0 0 1 294.07617,792.85938 517.17712,517.17712 0 0 1 811.2539,275.68164 517.17712,517.17712 0 0 1 1056.998,337.79688 l 69.6973,-121.11133 A 656.87085,656.87085 0 0 0 811.2539,135.98828 656.87085,656.87085 0 0 0 154.38281,792.85938 656.87085,656.87085 0 0 0 811.2539,1449.7305 656.87085,656.87085 0 0 0 1468,805.6543 Z M 811.25258,715.82499 a 78.789917,77.033859 0 0 0 -78.78907,77.03515 78.789917,77.033859 0 0 0 78.78907,77.0332 78.789917,77.033859 0 0 0 78.79101,-77.0332 78.789917,77.033859 0 0 0 -78.79101,-77.03515 z m 0,41.18554 a 37.166718,35.84967 0 0 1 37.16601,35.84961 37.166718,35.84967 0 0 1 -37.16601,35.84961 37.166718,35.84967 0 0 1 -37.16602,-35.84961 37.166718,35.84967 0 0 1 37.16602,-35.84961 z m 72.18296,4.96994 a 78.789917,77.033859 0 0 1 6.60742,30.87891 78.789917,77.033859 0 0 1 -6.60742,30.8789 h 164.19136 c 13.2146,0 23.8535,-11.94321 23.8535,-26.77929 v -8.19922 c 0,-14.83607 -10.6389,-26.7793 -23.8535,-26.7793 z M 807.15429,505.33008 c -14.83607,0 -26.77929,11.94517 -26.77929,26.78125 v 189.87695 a 78.789917,77.033859 0 0 1 30.87695,-6.16406 78.789917,77.033859 0 0 1 30.88086,6.16406 V 532.11133 c 0,-14.83608 -11.94322,-26.78125 -26.7793,-26.78125 z" /></svg>
