<?xml version="1.0" encoding="UTF-8" standalone="no"?>
<svg
   version="1.1"
   width="425.84744"
   height="122.41634"
   viewBox="0 0 425.84744 122.41634"
   xml:space="preserve"
   id="svg9"
   xmlns="http://www.w3.org/2000/svg"
   xmlns:svg="http://www.w3.org/2000/svg">
<desc
   id="desc1">Created with Fabric.js 5.3.0</desc>
<defs
   id="defs1" />



<path
   style="opacity:1;fill:#122f43;fill-rule:nonzero;stroke:none;stroke-width:0;stroke-linecap:butt;stroke-linejoin:miter;stroke-miterlimit:4;stroke-dasharray:none;stroke-dashoffset:0"
   paint-order="stroke"
   d="m 180.24607,0.80689 h 14.12048 V 59.53656 H 180.24607 L 159.4784,22.99621 V 59.53656 H 145.3195 V 0.80689 h 14.1589 l 20.76767,36.54034 z m 30.6232,0 h 14.10126 v 58.72967 h -14.10126 z m 70.58319,23.99521 v 0 10.73925 c 0,4.22654 -0.4995,7.89594 -1.46008,11.00821 -1.01821,3.11227 -2.42065,5.68662 -4.18812,7.74225 -1.82509,2.05563 -3.996,3.55413 -6.4935,4.55313 -2.51671,1.01822 -5.24475,1.4985 -8.28017,1.4985 v 0 c -2.42065,0 -4.6684,-0.32659 -6.78167,-0.96057 -2.09406,-0.61477 -3.97679,-1.57535 -5.64819,-2.92016 -1.69062,-1.28717 -3.13148,-2.90094 -4.34181,-4.87973 -1.21033,-1.97879 -2.15169,-4.26496 -2.78567,-6.97379 -0.6532,-2.65119 -0.97979,-5.68661 -0.97979,-9.06784 v 0 -10.73925 c 0,-4.22654 0.4995,-7.93437 1.4985,-11.04664 0.97979,-3.11226 2.38223,-5.6481896 4.20732,-7.7038196 1.80589,-2.05564 3.97679,-3.55414 6.4935,-4.55314 C 255.19028,0.48029 257.91832,0 260.95375,0 v 0 c 2.42065,0 4.68761,0.3266 6.78167,0.92216 2.05563,0.6531904 3.93836,1.6137704 5.64819,2.9009404 1.69062,1.34481 3.13148,2.95858 4.34181,4.93737 1.1719,1.9595696 2.11327,4.2649596 2.74725,6.9353596 0.65319,2.68962 0.97979,5.72504 0.97979,9.10627 z m -13.60177,12.39144 v 0 -14.12048 c 0,-1.90194 -0.0769,-3.51571 -0.28818,-4.91815 -0.19211,-1.42166 -0.51871,-2.59356 -0.88373,-3.55414 -0.40344,-0.96057 -0.88373,-1.76746 -1.44086,-2.38223 -0.57635,-0.59556 -1.21033,-1.03742 -1.90194,-1.32559 -0.73004,-0.28818 -1.53693,-0.40345 -2.38223,-0.40345 v 0 c -1.09506,0 -2.01722,0.19212 -2.86252,0.63398 -0.84531,0.46108 -1.57535,1.17191 -2.17091,2.1517 -0.61477,0.96057 -1.05663,2.24775 -1.34481,3.86152 -0.32659,1.61376 -0.48028,3.59255 -0.48028,5.93636 v 0 14.12048 c 0,1.88273 0.11527,3.55414 0.32659,4.95658 0.19212,1.42165 0.48029,2.63198 0.88373,3.59256 0.36502,0.999 0.84531,1.76746 1.42166,2.38223 0.55713,0.59555 1.19111,1.03742 1.92115,1.32559 0.73004,0.28818 1.53692,0.40344 2.38223,0.40344 v 0 c 1.05664,0 1.97879,-0.19211 2.8241,-0.65319 0.84531,-0.44186 1.57534,-1.11427 2.19011,-2.13248 0.59556,-0.96058 1.03743,-2.24775 1.36402,-3.89994 0.28818,-1.61377 0.44187,-3.59256 0.44187,-5.97479 z"
   stroke-linecap="round"
   id="path8" /><path
   style="opacity:1;fill:#122f43;fill-rule:nonzero;stroke:none;stroke-width:0;stroke-linecap:butt;stroke-linejoin:miter;stroke-miterlimit:4;stroke-dasharray:none;stroke-dashoffset:0"
   paint-order="stroke"
   d="m 113.05689,117.51739 h 13.10226 v 4.55313 H 113.05689 Z M 109.253,97.479752 h 5.91715 V 122.07052 H 109.253 Z m 3.80389,9.759458 h 11.41165 v 4.41866 h -11.41165 z m 0,-9.759458 h 13.1599 v 4.572348 h -13.1599 z M 145.8894,115.5386 v 0 c 0,-0.38423 -0.0384,-0.73004 -0.1729,-1.05664 -0.11527,-0.28817 -0.30738,-0.57634 -0.61477,-0.84531 -0.30738,-0.28817 -0.74925,-0.55713 -1.30638,-0.8453 -0.57635,-0.26896 -1.30639,-0.55714 -2.24775,-0.84531 v 0 c -1.07585,-0.36502 -2.11327,-0.78767 -3.11227,-1.24875 -0.999,-0.44187 -1.90195,-0.96058 -2.68962,-1.59456 -0.78767,-0.61477 -1.42165,-1.32559 -1.88273,-2.1709 -0.44186,-0.8261 -0.69161,-1.78667 -0.69161,-2.88173 v 0 c 0,-1.05664 0.24975,-1.998 0.71082,-2.86252 0.48029,-0.84531 1.13348,-1.575348 1.998,-2.190118 0.84531,-0.57634 1.84431,-1.05663 2.997,-1.38323 1.13348,-0.30738 2.38223,-0.46107 3.76546,-0.46107 v 0 c 1.80589,0 3.38123,0.30738 4.76447,0.92215 1.36401,0.63398 2.45907,1.51771 3.24675,2.651188 0.76846,1.15269 1.1719,2.4975 1.1719,4.05364 v 0 h -5.89794 c 0,-0.63398 -0.13448,-1.17191 -0.36502,-1.63298 -0.26896,-0.48029 -0.65319,-0.84531 -1.15269,-1.11427 -0.51872,-0.26897 -1.1527,-0.40345 -1.90195,-0.40345 v 0 c -0.74925,0 -1.38323,0.11527 -1.88273,0.3266 -0.4995,0.23054 -0.90294,0.51871 -1.15269,0.90294 -0.24975,0.38423 -0.38423,0.78768 -0.38423,1.24875 v 0 c 0,0.36502 0.0961,0.71083 0.3266,0.999 0.19211,0.30739 0.4995,0.57635 0.88373,0.84531 0.38423,0.24975 0.86452,0.4995 1.42165,0.73004 0.55713,0.24975 1.19112,0.48029 1.88273,0.69161 v 0 c 1.28717,0.42266 2.45908,0.88373 3.4965,1.38323 0.999,0.53793 1.86352,1.11427 2.57435,1.74825 0.69161,0.6532 1.22954,1.38323 1.61377,2.20933 0.3458,0.8261 0.53792,1.74825 0.53792,2.78567 v 0 c 0,1.09506 -0.23054,2.07485 -0.65319,2.93937 -0.42266,0.86452 -1.03743,1.59456 -1.84431,2.1709 -0.78767,0.57635 -1.74825,1.03743 -2.86252,1.34481 -1.11427,0.30739 -2.36302,0.46108 -3.72704,0.46108 v 0 c -1.26796,0 -2.4975,-0.17291 -3.72704,-0.4995 -1.22954,-0.3266 -2.32459,-0.80689 -3.32359,-1.47929 -0.999,-0.6724 -1.76746,-1.51771 -2.36302,-2.59356 -0.59556,-1.03742 -0.88373,-2.28617 -0.88373,-3.74625 v 0 h 5.93636 c 0,0.73004 0.0961,1.34481 0.28818,1.8251 0.19211,0.4995 0.48028,0.90294 0.8453,1.19111 0.36502,0.28818 0.8261,0.51871 1.36402,0.63398 0.53793,0.13448 1.17191,0.21133 1.86352,0.21133 v 0 c 0.74925,0 1.36402,-0.13448 1.8251,-0.34581 0.44186,-0.21132 0.78767,-0.4995 0.999,-0.88373 0.23054,-0.34581 0.32659,-0.74925 0.32659,-1.19111 z m 19.59577,-18.058848 h 5.93637 v 24.590768 h -5.93637 z m -7.22354,0 h 20.55635 v 4.572348 h -20.55635 z m 35.67583,24.590768 v 0 h -5.43687 l 0.0192,-4.55313 h 5.41765 c 1.13348,0 2.09406,-0.26897 2.88173,-0.80689 0.76846,-0.55713 1.36402,-1.36402 1.78667,-2.43986 0.40345,-1.05664 0.61477,-2.40145 0.61477,-3.97679 v 0 -1.05664 c 0,-1.1719 -0.13448,-2.22854 -0.3458,-3.13148 -0.23054,-0.88373 -0.57635,-1.63298 -1.03743,-2.22854 -0.44186,-0.59555 -0.999,-1.05663 -1.6714,-1.36402 -0.67241,-0.30738 -1.44087,-0.46107 -2.30539,-0.46107 v 0 h -5.47528 v -4.572348 h 5.47528 c 1.67141,0 3.18912,0.28817 4.59156,0.84531 1.38323,0.57635 2.59356,1.38323 3.61177,2.439858 1.01821,1.05664 1.80589,2.28618 2.36302,3.72704 0.55713,1.44087 0.8261,3.03543 0.8261,4.78368 v 0 1.01821 c 0,1.74825 -0.26897,3.3428 -0.8261,4.76446 -0.55713,1.44086 -1.34481,2.68961 -2.36302,3.72704 -1.01821,1.05663 -2.20933,1.86352 -3.57335,2.42065 -1.38323,0.57635 -2.90094,0.86452 -4.55313,0.86452 z m -7.97279,-24.590768 h 5.91716 v 24.590768 h -5.91716 z m 47.35644,20.191328 h 9.68262 v 4.39944 h -17.15591 v -3.70783 l 7.91516,-8.31859 c 0.69161,-0.78768 1.26796,-1.51771 1.69061,-2.1517 0.42266,-0.63398 0.73004,-1.21032 0.94137,-1.72903 0.19211,-0.51871 0.28817,-0.97979 0.28817,-1.40245 v 0 c 0,-0.71082 -0.0961,-1.30638 -0.30738,-1.78667 -0.21133,-0.48029 -0.51871,-0.82609 -0.90294,-1.07584 -0.42266,-0.24975 -0.90295,-0.38424 -1.4985,-0.38424 v 0 c -0.59556,0 -1.09506,0.17291 -1.53693,0.51872 -0.44186,0.32659 -0.76846,0.78767 -1.01821,1.38323 -0.24975,0.59555 -0.36502,1.24875 -0.36502,1.97879 v 0 h -5.70583 c 0,-1.51772 0.36502,-2.90095 1.11427,-4.1497 0.73004,-1.248748 1.74825,-2.247748 3.07385,-2.996998 1.3256,-0.74925 2.84331,-1.11427 4.57235,-1.11427 v 0 c 1.80588,0 3.32359,0.28818 4.57234,0.84531 1.22954,0.55714 2.15169,1.36402 2.78568,2.420658 0.61476,1.07584 0.92215,2.36301 0.92215,3.86151 v 0 c 0,0.86452 -0.13448,1.67141 -0.40344,2.45908 -0.26896,0.78767 -0.6532,1.57535 -1.17191,2.3246 -0.4995,0.78767 -1.11427,1.57534 -1.8443,2.38223 -0.71083,0.80688 -1.55614,1.6714 -2.47829,2.59356 v 0 z m 34.27339,-10.14369 v 0 4.4955 c 0,1.76746 -0.19212,3.30438 -0.59556,4.61076 -0.42265,1.30639 -1.01821,2.38224 -1.76746,3.24675 -0.74925,0.86452 -1.67141,1.47929 -2.70883,1.90195 -1.05663,0.42265 -2.19011,0.63398 -3.45808,0.63398 v 0 c -1.01821,0 -1.95957,-0.13448 -2.8433,-0.42266 -0.88373,-0.24975 -1.67141,-0.65319 -2.36302,-1.21032 -0.71083,-0.53793 -1.3256,-1.21033 -1.8251,-2.03643 -0.4995,-0.82609 -0.88373,-1.78667 -1.1719,-2.92015 -0.26896,-1.11427 -0.40344,-2.38223 -0.40344,-3.80388 v 0 -4.4955 c 0,-1.76747 0.21132,-3.3236 0.63398,-4.62998 0.40344,-1.28718 0.999,-2.36302 1.74825,-3.208328 0.76846,-0.86452 1.6714,-1.4985 2.72803,-1.92116 1.03743,-0.42265 2.19012,-0.61476 3.45808,-0.61476 v 0 c 1.01821,0 1.95958,0.13448 2.84331,0.38423 0.84531,0.26896 1.65219,0.6724 2.36302,1.21032 0.71082,0.55714 1.30638,1.22954 1.82509,2.055638 0.48029,0.84531 0.86452,1.80588 1.13348,2.92015 0.26897,1.13348 0.40345,2.38223 0.40345,3.80389 z m -5.68662,5.18711 v 0 -5.91715 c 0,-0.78768 -0.0192,-1.46008 -0.11527,-2.05564 -0.0768,-0.59555 -0.21132,-1.07584 -0.36502,-1.47929 -0.1729,-0.40344 -0.38423,-0.74925 -0.61477,-0.999 -0.23053,-0.24975 -0.4995,-0.44186 -0.78767,-0.55713 -0.30738,-0.11527 -0.65319,-0.1729 -0.999,-0.1729 v 0 c -0.46108,0 -0.84531,0.096 -1.19111,0.26896 -0.36502,0.19211 -0.67241,0.4995 -0.92216,0.90294 -0.24975,0.40344 -0.44186,0.94137 -0.55713,1.61377 -0.13448,0.6724 -0.19212,1.4985 -0.19212,2.47829 v 0 5.91715 c 0,0.78767 0.0384,1.47929 0.13448,2.07485 0.0769,0.59555 0.19212,1.09505 0.36502,1.4985 0.15369,0.42265 0.34581,0.74925 0.59556,0.999 0.23054,0.24975 0.4995,0.44186 0.80688,0.55713 0.30739,0.11527 0.63398,0.17291 0.999,0.17291 v 0 c 0.44187,0 0.8261,-0.0769 1.17191,-0.26897 0.36502,-0.19211 0.6724,-0.48028 0.92215,-0.90294 0.24975,-0.40344 0.44187,-0.94136 0.57635,-1.63298 0.11527,-0.6724 0.1729,-1.4985 0.1729,-2.4975 z m 20.76767,4.95658 h 9.68262 v 4.39944 h -17.1559 v -3.70783 l 7.91515,-8.31859 c 0.69161,-0.78768 1.26796,-1.51771 1.69061,-2.1517 0.42266,-0.63398 0.73004,-1.21032 0.94137,-1.72903 0.1729,-0.51871 0.28817,-0.97979 0.28817,-1.40245 v 0 c 0,-0.71082 -0.11527,-1.30638 -0.30738,-1.78667 -0.23054,-0.48029 -0.51871,-0.82609 -0.92216,-1.07584 -0.40344,-0.24975 -0.88373,-0.38424 -1.47928,-0.38424 v 0 c -0.59556,0 -1.09506,0.17291 -1.53693,0.51872 -0.44186,0.32659 -0.76846,0.78767 -1.01821,1.38323 -0.24975,0.59555 -0.36502,1.24875 -0.36502,1.97879 v 0 h -5.70582 c 0,-1.51772 0.36502,-2.90095 1.11427,-4.1497 0.73003,-1.248748 1.74825,-2.247748 3.07384,-2.996998 1.3256,-0.74925 2.84331,-1.11427 4.57235,-1.11427 v 0 c 1.80588,0 3.32359,0.28818 4.55313,0.84531 1.24875,0.55714 2.17091,1.36402 2.78567,2.420658 0.63399,1.07584 0.94137,2.36301 0.94137,3.86151 v 0 c 0,0.86452 -0.13448,1.67141 -0.40344,2.45908 -0.26896,0.78767 -0.67241,1.57535 -1.17191,2.3246 -0.4995,0.78767 -1.11427,1.57534 -1.8443,2.38223 -0.73004,0.80688 -1.55614,1.6714 -2.47829,2.59356 v 0 z m 30.02764,-20.537138 v 0 h 0.90294 v 4.476288 h -0.28817 c -1.11427,0 -2.11327,0.15369 -3.07385,0.44187 -0.96058,0.30738 -1.78667,0.76846 -2.4975,1.38323 -0.71083,0.61477 -1.26796,1.40244 -1.6714,2.32459 -0.40344,0.92216 -0.59556,2.01722 -0.59556,3.28518 v 0 4.30338 c 0,0.80689 0.0576,1.47929 0.19212,2.07485 0.13448,0.57634 0.3458,1.05663 0.61476,1.44086 0.26897,0.40345 0.61477,0.67241 1.01822,0.86452 0.38423,0.19212 0.8453,0.28818 1.38323,0.28818 v 0 c 0.44186,0 0.8453,-0.0961 1.21032,-0.30739 0.36502,-0.19211 0.69162,-0.48029 0.97979,-0.86452 0.26896,-0.36502 0.48029,-0.80688 0.61477,-1.28717 0.15369,-0.4995 0.23054,-1.03742 0.23054,-1.63298 v 0 c 0,-0.61477 -0.0768,-1.19112 -0.23054,-1.69062 -0.15369,-0.51871 -0.38423,-0.96057 -0.6724,-1.30638 -0.28818,-0.36502 -0.63398,-0.63398 -1.01821,-0.80689 -0.40345,-0.19211 -0.84531,-0.26896 -1.3256,-0.26896 v 0 c -0.73004,0 -1.3256,0.15369 -1.8251,0.46108 -0.4995,0.32659 -0.86452,0.74925 -1.13348,1.22954 -0.24975,0.4995 -0.38423,0.999 -0.38423,1.51771 v 0 l -1.36402,-1.38323 c -0.0192,-0.69162 0.0961,-1.38323 0.38423,-2.09406 0.28818,-0.73004 0.71083,-1.38323 1.26797,-2.01721 0.55713,-0.63398 1.26796,-1.11427 2.11326,-1.4985 0.84531,-0.38423 1.8251,-0.57635 2.93937,-0.57635 v 0 c 1.13348,0 2.13248,0.21133 2.97779,0.63398 0.86452,0.42266 1.59456,1.03743 2.19011,1.78668 0.59556,0.76846 1.01821,1.6714 1.3256,2.68961 0.30738,1.03742 0.46108,2.13248 0.46108,3.3236 v 0 c 0,1.21032 -0.21133,2.32459 -0.63398,3.34281 -0.40345,1.03742 -1.01822,1.94036 -1.78668,2.70882 -0.74925,0.76846 -1.6714,1.36402 -2.70882,1.78668 -1.05664,0.42265 -2.19012,0.65319 -3.45808,0.65319 v 0 c -1.30639,0 -2.4975,-0.23054 -3.59256,-0.69162 -1.09506,-0.42265 -2.05563,-1.07584 -2.86252,-1.94036 -0.82609,-0.84531 -1.46007,-1.86352 -1.90194,-3.09306 -0.46108,-1.24875 -0.69162,-2.63198 -0.69162,-4.1689 v 0 -2.09406 c 0,-2.09406 0.34581,-3.97679 1.03743,-5.60977 0.69161,-1.63298 1.63298,-3.03542 2.84331,-4.18812 1.19111,-1.133478 2.55513,-2.017208 4.11126,-2.612768 1.55614,-0.57634 3.18912,-0.88373 4.91816,-0.88373 z"
   stroke-linecap="round"
   id="path7" /><polygon
   style="opacity:1;fill:#122f43;fill-rule:nonzero;stroke:none;stroke-width:1;stroke-linecap:butt;stroke-linejoin:miter;stroke-miterlimit:4;stroke-dasharray:none;stroke-dashoffset:0"
   paint-order="stroke"
   points="-100,50 100,50 100,-50 -100,-50 "
   id="polygon3"
   transform="matrix(0.40646575,0,0,0.09713505,385.20087,108.91081)" /><polygon
   style="opacity:1;fill:#122f43;fill-rule:nonzero;stroke:none;stroke-width:1;stroke-linecap:butt;stroke-linejoin:miter;stroke-miterlimit:4;stroke-dasharray:none;stroke-dashoffset:0"
   paint-order="stroke"
   points="-100,50 100,50 100,-50 -100,-50 "
   id="polygon1"
   transform="matrix(0.40646575,0,0,0.09713505,40.646575,108.91081)" />
</svg>
